<svg width="3683" height="748" viewBox="0 0 3683 748" fill="none" xmlns="http://www.w3.org/2000/svg">
<rect x="1782.5" width="739.859" height="739.859" fill="#2A77DA"/>
<rect x="2191.96" y="358.635" width="234.383" height="19.7672" fill="#FF8000"/>
<rect x="1892.63" y="358.635" width="234.383" height="19.7672" fill="white"/>
<rect x="2152.43" y="336.044" width="234.383" height="16.9433" transform="rotate(-90 2152.43 336.044)" fill="white"/>
<rect x="2152.43" y="635.378" width="234.383" height="16.9433" transform="rotate(-90 2152.43 635.378)" fill="white"/>
<rect x="2142.48" y="397.576" width="34.9497" height="17.0083" transform="rotate(135 2142.48 397.576)" fill="white"/>
<rect x="2074.74" y="465.306" width="139.493" height="17.0083" transform="rotate(135 2074.74 465.306)" fill="white"/>
<rect x="2176.55" y="339.449" width="37.4262" height="17.0083" transform="rotate(-45 2176.55 339.449)" fill="white"/>
<rect x="2246.86" y="269.146" width="135.857" height="17.0083" transform="rotate(-45 2246.86 269.146)" fill="white"/>
<rect x="2188.58" y="385.545" width="36.071" height="17.0083" transform="rotate(45 2188.58 385.545)" fill="white"/>
<rect x="2260.33" y="457.308" width="133.807" height="17.0083" transform="rotate(45 2260.33 457.308)" fill="white"/>
<rect x="2130.44" y="351.473" width="33.9318" height="17.0083" transform="rotate(-135 2130.44 351.473)" fill="white"/>
<rect x="2064.39" y="285.408" width="141.859" height="17.0083" transform="rotate(-135 2064.39 285.408)" fill="white"/>
<path d="M1299 493.187C1344.6 493.187 1357 527.187 1357.5 544.187H1390C1390 517.687 1377.8 466.187 1299 466.187C1200.5 466.187 1196.5 548.687 1196.5 572.687C1196.5 596.687 1205.5 673.687 1299 673.687C1373.8 673.687 1392.17 621.353 1392 595.187H1358.5C1355.5 617.687 1342.2 646.687 1299 646.687C1245 646.687 1233.5 610.187 1233.5 572.687C1233.5 535.187 1242 493.187 1299 493.187Z" fill="black"/>
<path d="M814 465.687C871.5 466.655 886.591 503.696 885.091 526.22H850.591C847.091 496.72 827.09 492.696 797.59 492.696C765.09 492.696 757.591 509.72 757.591 519.72C757.591 531.22 765.59 546.196 811.09 549.196C856.59 552.196 877.09 571.196 882.59 583.696C888.09 596.196 888.591 607.72 886.591 624.22C884.329 642.883 872.582 655.22 862.082 661.72C843.582 673.172 797.5 676.696 767.052 669.696C715.516 657.848 715.09 621.72 716.092 602.72H751.092C749.892 637.12 777.333 644.53 792.5 644.696H819C835.5 644.696 850.591 636.196 850.591 613.696C850.591 583.196 806.787 580.619 787.59 578.22C771.588 576.22 749.091 572.72 735.091 558.72C723.891 547.52 722.59 536.178 722.59 528.696V521.696C722.59 512.896 722.59 498.687 735.091 486.691C746.09 476.136 763.5 464.837 814 465.687Z" fill="black"/>
<path d="M646.5 472.187H576V499.187H611.5V634.187C611.5 661.787 636 668.187 648 668.187H702.5V640.687H646.5V472.187Z" fill="black"/>
<path d="M70.5 406.687H0V434.187H35.5V636.187C35.5 661.787 58.8333 667.853 70.5 667.687H128V640.687H70.5V406.687Z" fill="black"/>
<path d="M1585.5 114.187H1425.5V142.187H1543L1425.5 286.187V315.187H1595V286.187H1468L1585.5 142.187V114.187Z" fill="black"/>
<path d="M1288.03 108.687C1355.03 108.52 1368.03 149.686 1368.03 170.187V286.687H1407.53V314.187H1367.03C1345.43 314.187 1339.37 298.854 1339.03 291.187V272.187H1332.53C1328.53 284.187 1320.5 319.187 1265.03 319.187C1216 319.187 1193.5 288.954 1193.5 250.687C1193.5 214.656 1225.53 199.687 1250.03 196.187C1280.5 191.835 1313.87 190.02 1333.53 188.687V179.687C1333.53 158.187 1327.13 135.187 1287.53 135.187C1247.93 135.187 1239.7 160.354 1239.53 172.687H1204.53V168.187C1204.53 142.687 1227.63 108.838 1288.03 108.687ZM1332.84 213.687C1240.35 215.187 1233.34 229.687 1228.84 244.187C1223.97 259.891 1230.84 292.687 1274.84 292.687C1318.84 292.687 1332.84 257.187 1332.84 229.687V213.687Z" fill="black"/>
<path d="M1511.03 464.687C1578.03 464.52 1591.03 505.686 1591.03 526.187V642.687H1630.53V670.187H1590.03C1568.43 670.187 1562.37 654.854 1562.03 647.187V628.187H1555.53C1551.53 640.187 1543.5 675.187 1488.03 675.187C1439 675.187 1416.5 644.954 1416.5 606.686C1416.5 570.655 1448.53 555.687 1473.03 552.187C1503.5 547.835 1536.87 546.02 1556.53 544.687V535.687C1556.53 514.187 1550.13 491.186 1510.53 491.186C1470.93 491.186 1462.7 516.354 1462.53 528.687H1427.53V524.187C1427.53 498.687 1450.63 464.838 1511.03 464.687ZM1555.84 569.687C1463.34 571.187 1456.34 585.687 1451.84 600.187C1446.97 615.891 1453.84 648.687 1497.84 648.687C1541.84 648.687 1555.84 613.187 1555.84 585.687V569.687Z" fill="black"/>
<path d="M1024.5 48.1865H956V75.1865H989.5V314.187H1024.5V213.687H1046.5C1061.5 235.353 1094 282.187 1104 296.187C1114 310.187 1130 314.187 1141.5 314.187H1175.5V286.687H1141.5L1080 200.187L1166 114.187H1121.5L1024.5 211.187V48.1865Z" fill="black"/>
<path d="M247.5 467.687C296.653 467.687 336.5 507.533 336.5 556.687V586.687C336.5 635.84 296.653 675.687 247.5 675.687H227.5C178.347 675.687 138.5 635.84 138.5 586.687V556.687C138.5 507.533 178.347 467.687 227.5 467.687H247.5ZM237 494.687C201.93 494.687 173.5 523.116 173.5 558.187V585.187C173.5 620.257 201.93 648.687 237 648.687C272.07 648.687 300.5 620.257 300.5 585.187V558.187C300.5 523.116 272.07 494.687 237 494.687Z" fill="black"/>
<path d="M967.5 426.187H984.5V471.687H1046.5V498.187H984.5V570.687V640.687H1044V668.187H989C955.5 668.187 949 646.687 949 627.687V498.187H909.5V471.687H948L967.5 426.187Z" fill="black"/>
<path d="M556.997 499.686H506.5V505.418C518.333 508.085 542.997 519.786 542.997 544.186V551.687C542.997 562.187 539.5 583.687 521.5 595.687C502.093 608.624 486.5 611.687 467.5 611.687H424.5C414 611.687 402 615.187 402 624.187V629.687C402 633.687 406.4 642.686 420 642.686H511.991C534.5 642.686 564 656.187 564 686.187V700.687C563.833 715.02 551.991 747.185 509.991 747.186H416.491C402.158 746.686 372.291 739.086 367.491 712.686C362.691 686.286 378 669.187 401.032 666.187L406.992 665.687V661.687C393.992 659.686 372.992 654.186 372.992 633.687V629.686C372.992 623.687 377.992 607.687 411.992 604.687V598.686C391.992 592.686 370.261 578.186 370.261 548.687V530.187C370.261 505.187 394.992 472.353 459.492 472.353C471.963 472.353 515.492 472.185 556.997 472.186V499.686ZM422.5 669.687C409.797 669.687 399.5 679.984 399.5 692.687V697.687C399.5 710.389 409.797 720.687 422.5 720.687H507.5C520.202 720.687 530.5 710.389 530.5 697.687V692.687C530.5 679.984 520.202 669.687 507.5 669.687H422.5ZM441.5 501.687C420.513 501.687 403.5 518.7 403.5 539.687V546.687C403.5 567.673 420.513 584.687 441.5 584.687H471.5C492.487 584.687 509.5 567.673 509.5 546.687V539.687C509.5 518.7 492.487 501.687 471.5 501.687H441.5Z" fill="black"/>
<rect x="606.5" y="404.687" width="45" height="39" fill="black"/>
<path d="M646.5 472.187H576V499.187H611.5V634.187C611.5 661.787 636 668.187 648 668.187H702.5V640.687H646.5V472.187Z" fill="black"/>
<path d="M1135 472.187H1064.5V499.187H1100V634.187C1100 661.787 1124.5 668.187 1136.5 668.187H1191V640.687H1135V472.187Z" fill="black"/>
<rect x="606.5" y="404.687" width="45" height="39" fill="black"/>
<rect x="1095" y="404.687" width="45" height="39" fill="black"/>
<path d="M2685.05 280.687V202.142H2695.59V280.687H2685.05ZM2715.09 280.687V225.705H2725.41V233.111C2727.77 229.894 2730.52 227.575 2733.66 226.154C2736.8 224.733 2740.02 224.022 2743.31 224.022C2748.28 224.022 2752.4 225.032 2755.65 227.052C2758.94 229.034 2761.39 231.577 2763 234.682C2764.65 237.786 2765.47 240.965 2765.47 244.219V280.687H2755.15V247.417C2755.15 243.265 2753.86 239.937 2751.28 237.431C2748.69 234.887 2745.18 233.616 2740.73 233.616C2737.81 233.616 2735.19 234.27 2732.87 235.579C2730.59 236.851 2728.78 238.665 2727.43 241.021C2726.08 243.378 2725.41 246.089 2725.41 249.156V280.687H2715.09ZM2804.32 282.37C2799.2 282.37 2795.07 280.874 2791.92 277.881C2788.82 274.889 2787.27 270.27 2787.27 264.024V209.547H2797.59V225.705H2813.69V234.457H2797.59V261.443C2797.59 265.632 2798.34 268.587 2799.84 270.307C2801.37 271.99 2803.59 272.832 2806.51 272.832C2807.82 272.832 2809.05 272.682 2810.21 272.383C2811.41 272.084 2812.46 271.691 2813.36 271.205L2815.49 279.677C2813.95 280.5 2812.22 281.154 2810.27 281.64C2808.33 282.127 2806.34 282.37 2804.32 282.37ZM2774.7 234.457V225.705H2788.84V234.457H2774.7ZM2853.35 282.37C2847.52 282.37 2842.37 281.154 2837.92 278.723C2833.47 276.292 2829.99 272.907 2827.49 268.568C2824.98 264.192 2823.73 259.105 2823.73 253.308C2823.73 249.119 2824.44 245.229 2825.86 241.638C2827.32 238.048 2829.34 234.943 2831.92 232.325C2834.54 229.707 2837.59 227.669 2841.07 226.21C2844.58 224.751 2848.4 224.022 2852.51 224.022C2856.96 224.022 2860.93 224.807 2864.4 226.378C2867.92 227.949 2870.82 230.156 2873.1 232.999C2875.42 235.804 2877.08 239.114 2878.09 242.929C2879.1 246.707 2879.31 250.821 2878.71 255.272H2833.94C2833.83 258.937 2834.58 262.154 2836.18 264.921C2837.79 267.652 2840.11 269.784 2843.14 271.317C2846.21 272.851 2849.84 273.617 2854.03 273.617C2857.09 273.617 2860.08 273.131 2863 272.159C2865.92 271.186 2868.5 269.746 2870.74 267.839L2875.12 275.525C2873.32 276.984 2871.19 278.237 2868.72 279.284C2866.29 280.294 2863.75 281.061 2861.09 281.584C2858.44 282.108 2855.86 282.37 2853.35 282.37ZM2834.5 247.249H2868.39C2868.24 242.611 2866.8 239.002 2864.07 236.421C2861.34 233.803 2857.43 232.494 2852.34 232.494C2847.4 232.494 2843.33 233.803 2840.11 236.421C2836.89 239.002 2835.02 242.611 2834.5 247.249ZM2892.06 280.687V225.705H2902.38V233.672C2904.59 230.081 2907.2 227.575 2910.23 226.154C2913.3 224.695 2916.55 223.966 2919.99 223.966C2921.08 223.966 2922.13 224.022 2923.14 224.134C2924.15 224.246 2925.14 224.396 2926.11 224.583L2924.6 235.299C2923.55 235 2922.48 234.775 2921.4 234.626C2920.31 234.439 2919.25 234.345 2918.2 234.345C2913.6 234.345 2909.8 235.785 2906.81 238.665C2903.86 241.508 2902.38 245.323 2902.38 250.11V280.687H2892.06ZM2936.98 280.687V225.705H2947.31V233.111C2949.66 229.894 2952.41 227.575 2955.55 226.154C2958.69 224.733 2961.91 224.022 2965.2 224.022C2970.18 224.022 2974.29 225.032 2977.54 227.052C2980.84 229.034 2983.29 231.577 2984.89 234.682C2986.54 237.786 2987.36 240.965 2987.36 244.219V280.687H2977.04V247.417C2977.04 243.265 2975.75 239.937 2973.17 237.431C2970.59 234.887 2967.07 233.616 2962.62 233.616C2959.7 233.616 2957.09 234.27 2954.77 235.579C2952.49 236.851 2950.67 238.665 2949.32 241.021C2947.98 243.378 2947.31 246.089 2947.31 249.156V280.687H2936.98ZM3019.8 282.37C3015.91 282.37 3012.52 281.659 3009.64 280.238C3006.76 278.816 3004.53 276.815 3002.96 274.235C3001.39 271.616 3000.61 268.531 3000.61 264.978C3000.61 262.06 3001.36 259.405 3002.85 257.011C3004.35 254.58 3006.7 252.579 3009.92 251.008C3013.14 249.399 3017.31 248.334 3022.43 247.81C3027.56 247.249 3033.75 247.342 3041 248.09L3041.28 255.664C3035.67 254.916 3030.9 254.636 3026.98 254.823C3023.05 254.972 3019.87 255.496 3017.44 256.394C3015.01 257.254 3013.21 258.413 3012.05 259.872C3010.93 261.293 3010.37 262.902 3010.37 264.697C3010.37 267.577 3011.4 269.84 3013.46 271.486C3015.55 273.094 3018.41 273.898 3022.04 273.898C3025.14 273.898 3027.91 273.337 3030.34 272.215C3032.81 271.055 3034.76 269.466 3036.18 267.446C3037.64 265.389 3038.37 263.014 3038.37 260.321V244.949C3038.37 242.368 3037.79 240.124 3036.63 238.216C3035.5 236.309 3033.84 234.831 3031.63 233.784C3029.43 232.737 3026.71 232.213 3023.5 232.213C3020.62 232.213 3017.76 232.643 3014.91 233.503C3012.07 234.364 3009.34 235.766 3006.72 237.711L3003.58 229.745C3006.98 227.426 3010.5 225.799 3014.13 224.864C3017.76 223.928 3021.24 223.461 3024.56 223.461C3029.61 223.461 3033.91 224.265 3037.47 225.873C3041.02 227.444 3043.73 229.819 3045.6 232.999C3047.47 236.178 3048.41 240.142 3048.41 244.892V280.687H3038.93V273.954C3037.02 276.684 3034.38 278.779 3031.02 280.238C3027.65 281.659 3023.91 282.37 3019.8 282.37ZM3087.14 282.37C3082.02 282.37 3077.89 280.874 3074.74 277.881C3071.64 274.889 3070.09 270.27 3070.09 264.024V209.547H3080.41V225.705H3096.51V234.457H3080.41V261.443C3080.41 265.632 3081.16 268.587 3082.65 270.307C3084.19 271.99 3086.41 272.832 3089.33 272.832C3090.64 272.832 3091.87 272.682 3093.03 272.383C3094.23 272.084 3095.28 271.691 3096.17 271.205L3098.31 279.677C3096.77 280.5 3095.03 281.154 3093.09 281.64C3091.14 282.127 3089.16 282.37 3087.14 282.37ZM3057.52 234.457V225.705H3071.66V234.457H3057.52ZM3111.87 280.687V225.705H3122.19V280.687H3111.87ZM3117.03 215.326C3115.08 215.326 3113.4 214.671 3111.98 213.362C3110.56 212.053 3109.85 210.408 3109.85 208.425C3109.85 206.368 3110.56 204.704 3111.98 203.432C3113.4 202.123 3115.08 201.468 3117.03 201.468C3119.01 201.468 3120.69 202.123 3122.08 203.432C3123.5 204.704 3124.21 206.368 3124.21 208.425C3124.21 210.408 3123.5 212.053 3122.08 213.362C3120.69 214.671 3119.01 215.326 3117.03 215.326ZM3164.66 282.37C3158.97 282.37 3153.9 281.042 3149.45 278.386C3145 275.731 3141.51 272.196 3138.96 267.783C3136.42 263.369 3135.15 258.507 3135.15 253.196C3135.15 249.269 3135.88 245.547 3137.34 242.031C3138.79 238.515 3140.85 235.411 3143.51 232.718C3146.16 229.988 3149.29 227.856 3152.88 226.322C3156.47 224.789 3160.39 224.022 3164.66 224.022C3170.38 224.022 3175.47 225.35 3179.92 228.005C3184.37 230.661 3187.87 234.195 3190.41 238.609C3192.95 243.022 3194.22 247.885 3194.22 253.196C3194.22 257.123 3193.5 260.845 3192.04 264.36C3190.58 267.876 3188.52 270.981 3185.86 273.674C3183.21 276.367 3180.09 278.498 3176.5 280.069C3172.91 281.603 3168.96 282.37 3164.66 282.37ZM3164.66 273.056C3168.36 273.056 3171.63 272.252 3174.48 270.644C3177.36 268.998 3179.62 266.698 3181.26 263.743C3182.91 260.751 3183.73 257.235 3183.73 253.196C3183.73 249.119 3182.91 245.603 3181.26 242.648C3179.66 239.656 3177.41 237.356 3174.53 235.748C3171.65 234.139 3168.36 233.335 3164.66 233.335C3160.96 233.335 3157.66 234.139 3154.78 235.748C3151.94 237.356 3149.7 239.656 3148.05 242.648C3146.44 245.603 3145.64 249.119 3145.64 253.196C3145.64 257.235 3146.44 260.751 3148.05 263.743C3149.7 266.698 3151.96 268.998 3154.84 270.644C3157.72 272.252 3160.99 273.056 3164.66 273.056ZM3207.2 280.687V225.705H3217.52V233.111C3219.88 229.894 3222.63 227.575 3225.77 226.154C3228.91 224.733 3232.13 224.022 3235.42 224.022C3240.39 224.022 3244.51 225.032 3247.76 227.052C3251.05 229.034 3253.5 231.577 3255.11 234.682C3256.76 237.786 3257.58 240.965 3257.58 244.219V280.687H3247.26V247.417C3247.26 243.265 3245.97 239.937 3243.39 237.431C3240.81 234.887 3237.29 233.616 3232.84 233.616C3229.92 233.616 3227.3 234.27 3224.98 235.579C3222.7 236.851 3220.89 238.665 3219.54 241.021C3218.2 243.378 3217.52 246.089 3217.52 249.156V280.687H3207.2ZM3290.01 282.37C3286.12 282.37 3282.74 281.659 3279.86 280.238C3276.98 278.816 3274.75 276.815 3273.18 274.235C3271.61 271.616 3270.82 268.531 3270.82 264.978C3270.82 262.06 3271.57 259.405 3273.07 257.011C3274.57 254.58 3276.92 252.579 3280.14 251.008C3283.35 249.399 3287.53 248.334 3292.65 247.81C3297.77 247.249 3303.96 247.342 3311.22 248.09L3311.5 255.664C3305.89 254.916 3301.12 254.636 3297.19 254.823C3293.27 254.972 3290.09 255.496 3287.66 256.394C3285.22 257.254 3283.43 258.413 3282.27 259.872C3281.15 261.293 3280.59 262.902 3280.59 264.697C3280.59 267.577 3281.62 269.84 3283.67 271.486C3285.77 273.094 3288.63 273.898 3292.26 273.898C3295.36 273.898 3298.13 273.337 3300.56 272.215C3303.03 271.055 3304.97 269.466 3306.39 267.446C3307.85 265.389 3308.58 263.014 3308.58 260.321V244.949C3308.58 242.368 3308 240.124 3306.84 238.216C3305.72 236.309 3304.06 234.831 3301.85 233.784C3299.64 232.737 3296.93 232.213 3293.72 232.213C3290.84 232.213 3287.97 232.643 3285.13 233.503C3282.29 234.364 3279.56 235.766 3276.94 237.711L3273.8 229.745C3277.2 227.426 3280.72 225.799 3284.35 224.864C3287.97 223.928 3291.45 223.461 3294.78 223.461C3299.83 223.461 3304.13 224.265 3307.68 225.873C3311.24 227.444 3313.95 229.819 3315.82 232.999C3317.69 236.178 3318.63 240.142 3318.63 244.892V280.687H3309.14V273.954C3307.24 276.684 3304.6 278.779 3301.23 280.238C3297.87 281.659 3294.13 282.37 3290.01 282.37ZM3335.73 280.687V199.897H3346.06V280.687H3335.73ZM2685.05 420.687V342.142H2695.59V410.981H2730.72V420.687H2685.05ZM2768.43 422.37C2762.74 422.37 2757.67 421.042 2753.22 418.386C2748.77 415.731 2745.27 412.196 2742.73 407.783C2740.19 403.369 2738.92 398.507 2738.92 393.196C2738.92 389.269 2739.65 385.547 2741.1 382.031C2742.56 378.515 2744.62 375.411 2747.28 372.718C2749.93 369.988 2753.05 367.856 2756.65 366.322C2760.24 364.789 2764.16 364.022 2768.43 364.022C2774.15 364.022 2779.24 365.35 2783.69 368.005C2788.14 370.661 2791.64 374.195 2794.18 378.609C2796.72 383.022 2797.99 387.885 2797.99 393.196C2797.99 397.123 2797.26 400.845 2795.81 404.36C2794.35 407.876 2792.29 410.981 2789.63 413.674C2786.98 416.367 2783.86 418.498 2780.26 420.069C2776.67 421.603 2772.73 422.37 2768.43 422.37ZM2768.43 413.056C2772.13 413.056 2775.4 412.252 2778.25 410.644C2781.12 408.998 2783.39 406.698 2785.03 403.743C2786.68 400.751 2787.5 397.235 2787.5 393.196C2787.5 389.119 2786.68 385.603 2785.03 382.648C2783.43 379.656 2781.18 377.356 2778.3 375.748C2775.42 374.139 2772.13 373.335 2768.43 373.335C2764.72 373.335 2761.43 374.139 2758.55 375.748C2755.71 377.356 2753.47 379.656 2751.82 382.648C2750.21 385.603 2749.41 389.119 2749.41 393.196C2749.41 397.235 2750.21 400.751 2751.82 403.743C2753.47 406.698 2755.73 408.998 2758.61 410.644C2761.49 412.252 2764.76 413.056 2768.43 413.056ZM2832.68 445.933C2828.57 445.933 2824.86 445.559 2821.57 444.811C2818.32 444.063 2815.53 442.997 2813.21 441.613C2810.89 440.267 2809.12 438.621 2807.88 436.676C2806.69 434.731 2806.09 432.562 2806.09 430.168C2806.09 428.186 2806.61 426.353 2807.66 424.67C2808.71 423.024 2810.26 421.603 2812.31 420.406C2814.37 419.172 2816.92 418.237 2819.94 417.601C2817.74 416.516 2816.07 415.301 2814.95 413.954C2813.87 412.57 2813.32 410.981 2813.32 409.185C2813.32 407.652 2813.77 406.231 2814.67 404.921C2815.57 403.575 2816.82 402.378 2818.43 401.331C2820.08 400.246 2822.02 399.367 2824.26 398.694C2826.55 397.983 2829.05 397.534 2831.78 397.347L2834.31 402.172C2831.91 402.172 2829.84 402.378 2828.08 402.79C2826.36 403.201 2825.01 403.799 2824.04 404.585C2823.11 405.333 2822.64 406.231 2822.64 407.278C2822.64 408.699 2823.42 409.709 2824.99 410.307C2826.6 410.868 2828.75 411.261 2831.45 411.486L2840.87 412.215C2845.55 412.589 2849.51 413.356 2852.77 414.515C2856.02 415.675 2858.51 417.283 2860.23 419.34C2861.95 421.397 2862.81 423.997 2862.81 427.138C2862.81 429.794 2862.08 432.263 2860.62 434.544C2859.2 436.863 2857.16 438.864 2854.5 440.547C2851.85 442.23 2848.67 443.539 2844.97 444.474C2841.26 445.447 2837.17 445.933 2832.68 445.933ZM2833.47 438.415C2839.41 438.415 2844.09 437.499 2847.49 435.666C2850.9 433.833 2852.6 431.477 2852.6 428.597C2852.6 426.39 2851.42 424.651 2849.06 423.379C2846.74 422.145 2843.23 421.36 2838.52 421.023L2828.53 420.294C2825.91 420.481 2823.67 420.948 2821.8 421.696C2819.93 422.482 2818.49 423.492 2817.48 424.726C2816.5 425.96 2816.02 427.363 2816.02 428.934C2816.02 430.804 2816.73 432.45 2818.15 433.871C2819.57 435.292 2821.57 436.396 2824.15 437.181C2826.77 438.004 2829.88 438.415 2833.47 438.415ZM2833.19 403.126C2828.7 403.126 2824.64 402.266 2821.01 400.545C2817.42 398.787 2814.56 396.431 2812.43 393.476C2810.33 390.522 2809.29 387.211 2809.29 383.546C2809.29 379.918 2810.33 376.627 2812.43 373.672C2814.56 370.717 2817.44 368.379 2821.07 366.659C2824.69 364.901 2828.73 364.022 2833.19 364.022C2837.67 364.022 2841.71 364.901 2845.3 366.659C2848.93 368.379 2851.79 370.717 2853.89 373.672C2856.02 376.627 2857.09 379.918 2857.09 383.546C2857.09 387.211 2856.02 390.522 2853.89 393.476C2851.79 396.431 2848.95 398.787 2845.36 400.545C2841.77 402.266 2837.71 403.126 2833.19 403.126ZM2833.19 394.935C2835.95 394.935 2838.38 394.467 2840.48 393.532C2842.61 392.56 2844.28 391.232 2845.47 389.549C2846.67 387.829 2847.27 385.828 2847.27 383.546C2847.27 380.18 2845.96 377.449 2843.34 375.355C2840.76 373.223 2837.37 372.157 2833.19 372.157C2830.42 372.157 2827.97 372.643 2825.84 373.616C2823.74 374.588 2822.1 375.935 2820.9 377.655C2819.74 379.338 2819.16 381.302 2819.16 383.546C2819.16 386.912 2820.45 389.661 2823.03 391.793C2825.65 393.888 2829.03 394.935 2833.19 394.935ZM2841.88 374.177L2838.07 366.659L2866.45 365.705L2866.34 374.457L2841.88 374.177ZM2877.59 420.687V365.705H2887.91V420.687H2877.59ZM2882.75 355.326C2880.81 355.326 2879.12 354.671 2877.7 353.362C2876.28 352.053 2875.57 350.408 2875.57 348.425C2875.57 346.368 2876.28 344.704 2877.7 343.432C2879.12 342.123 2880.81 341.468 2882.75 341.468C2884.74 341.468 2886.42 342.123 2887.8 343.432C2889.22 344.704 2889.93 346.368 2889.93 348.425C2889.93 350.408 2889.22 352.053 2887.8 353.362C2886.42 354.671 2884.74 355.326 2882.75 355.326ZM2923.54 422.314C2919.2 422.314 2915.08 421.678 2911.19 420.406C2907.34 419.097 2904.13 417.358 2901.54 415.188L2905.81 407.39C2908.24 409.41 2911.01 410.999 2914.11 412.159C2917.25 413.281 2920.4 413.842 2923.54 413.842C2927.43 413.842 2930.46 413.15 2932.63 411.766C2934.8 410.345 2935.88 408.344 2935.88 405.763C2935.88 403.369 2934.95 401.593 2933.07 400.433C2931.2 399.274 2927.73 398.077 2922.64 396.843C2915.91 395.309 2911.01 393.252 2907.94 390.671C2904.91 388.09 2903.4 384.537 2903.4 380.011C2903.4 376.795 2904.29 373.952 2906.09 371.484C2907.88 368.978 2910.33 367.014 2913.44 365.593C2916.58 364.172 2920.19 363.461 2924.27 363.461C2928.31 363.461 2932.07 364.041 2935.54 365.2C2939.06 366.322 2942.11 367.968 2944.69 370.137L2940.7 377.992C2939.4 376.757 2937.84 375.692 2936.05 374.794C2934.29 373.896 2932.4 373.204 2930.38 372.718C2928.36 372.194 2926.34 371.933 2924.32 371.933C2920.99 371.933 2918.26 372.606 2916.13 373.952C2914.04 375.299 2912.99 377.169 2912.99 379.563C2912.99 382.069 2914 383.901 2916.02 385.061C2918.08 386.22 2921.48 387.361 2926.23 388.483C2933.11 390.017 2938.05 392.074 2941.04 394.655C2944.03 397.198 2945.53 400.714 2945.53 405.202C2945.53 408.68 2944.61 411.71 2942.78 414.291C2940.95 416.834 2938.39 418.816 2935.09 420.238C2931.8 421.622 2927.95 422.314 2923.54 422.314ZM2982.93 422.37C2977.81 422.37 2973.68 420.874 2970.54 417.881C2967.43 414.889 2965.88 410.27 2965.88 404.024V349.547H2976.2V365.705H2992.3V374.457H2976.2V401.443C2976.2 405.632 2976.95 408.587 2978.45 410.307C2979.98 411.99 2982.2 412.832 2985.12 412.832C2986.43 412.832 2987.67 412.682 2988.83 412.383C2990.02 412.084 2991.07 411.691 2991.97 411.205L2994.1 419.677C2992.57 420.5 2990.83 421.154 2988.88 421.64C2986.94 422.127 2984.95 422.37 2982.93 422.37ZM2953.31 374.457V365.705H2967.45V374.457H2953.31ZM3007.66 420.687V365.705H3017.98V420.687H3007.66ZM3012.82 355.326C3010.88 355.326 3009.19 354.671 3007.77 353.362C3006.35 352.053 3005.64 350.408 3005.64 348.425C3005.64 346.368 3006.35 344.704 3007.77 343.432C3009.19 342.123 3010.88 341.468 3012.82 341.468C3014.8 341.468 3016.49 342.123 3017.87 343.432C3019.29 344.704 3020 346.368 3020 348.425C3020 350.408 3019.29 352.053 3017.87 353.362C3016.49 354.671 3014.8 355.326 3012.82 355.326ZM3060.73 422.37C3054.93 422.37 3049.79 421.098 3045.3 418.555C3040.81 416.011 3037.3 412.552 3034.75 408.175C3032.21 403.762 3030.94 398.769 3030.94 393.196C3030.94 388.969 3031.69 385.08 3033.18 381.526C3034.72 377.973 3036.87 374.887 3039.64 372.269C3042.4 369.651 3045.64 367.631 3049.34 366.21C3053.08 364.751 3057.16 364.022 3061.57 364.022C3065.16 364.022 3068.47 364.49 3071.5 365.425C3074.53 366.36 3077.34 367.8 3079.92 369.745L3074.64 377.711C3072.96 376.253 3071 375.168 3068.75 374.457C3066.51 373.709 3064.13 373.335 3061.63 373.335C3057.51 373.335 3053.94 374.121 3050.91 375.692C3047.92 377.225 3045.6 379.469 3043.96 382.424C3042.31 385.379 3041.49 388.932 3041.49 393.084C3041.49 399.33 3043.28 404.229 3046.87 407.783C3050.5 411.299 3055.4 413.056 3061.57 413.056C3064.41 413.056 3067.07 412.552 3069.54 411.542C3072.01 410.494 3074.03 409.148 3075.6 407.502L3080.93 415.357C3078.05 417.526 3074.89 419.247 3071.45 420.518C3068.01 421.752 3064.43 422.37 3060.73 422.37ZM2720.62 562.37C2712.5 562.37 2705.39 560.687 2699.3 557.32C2693.24 553.917 2688.53 549.148 2685.16 543.014C2681.83 536.843 2680.17 529.643 2680.17 521.414C2680.17 515.467 2681.16 510.006 2683.14 505.032C2685.12 500.02 2687.93 495.681 2691.56 492.016C2695.18 488.35 2699.47 485.508 2704.4 483.488C2709.38 481.468 2714.8 480.459 2720.67 480.459C2726.47 480.459 2731.54 481.188 2735.88 482.647C2740.22 484.068 2743.96 486.106 2747.1 488.762L2741.49 497.402C2738.94 495.12 2735.99 493.418 2732.62 492.296C2729.26 491.174 2725.54 490.613 2721.46 490.613C2716.86 490.613 2712.69 491.324 2708.95 492.745C2705.21 494.166 2702.01 496.224 2699.35 498.917C2696.74 501.572 2694.72 504.789 2693.29 508.566C2691.87 512.344 2691.16 516.589 2691.16 521.302C2691.16 527.81 2692.42 533.364 2694.92 537.965C2697.47 542.565 2701.06 546.081 2705.69 548.512C2710.33 550.906 2715.81 552.103 2722.13 552.103C2726.21 552.103 2730.12 551.504 2733.86 550.307C2737.64 549.073 2741.17 547.072 2744.46 544.304L2749.4 553.281C2745.55 556.31 2741.23 558.592 2736.44 560.125C2731.69 561.622 2726.41 562.37 2720.62 562.37ZM2786.4 562.37C2780.57 562.37 2775.42 561.154 2770.97 558.723C2766.52 556.292 2763.04 552.907 2760.54 548.568C2758.03 544.192 2756.78 539.105 2756.78 533.308C2756.78 529.119 2757.49 525.229 2758.91 521.638C2760.37 518.048 2762.39 514.943 2764.97 512.325C2767.59 509.707 2770.64 507.669 2774.11 506.21C2777.63 504.751 2781.44 504.022 2785.56 504.022C2790.01 504.022 2793.97 504.807 2797.45 506.378C2800.97 507.949 2803.87 510.156 2806.15 512.999C2808.47 515.804 2810.13 519.114 2811.14 522.929C2812.15 526.707 2812.36 530.821 2811.76 535.272H2766.99C2766.88 538.937 2767.62 542.154 2769.23 544.921C2770.84 547.652 2773.16 549.784 2776.19 551.317C2779.26 552.851 2782.88 553.617 2787.07 553.617C2790.14 553.617 2793.13 553.131 2796.05 552.159C2798.97 551.186 2801.55 549.746 2803.79 547.839L2808.17 555.525C2806.37 556.984 2804.24 558.237 2801.77 559.284C2799.34 560.294 2796.8 561.061 2794.14 561.584C2791.49 562.108 2788.91 562.37 2786.4 562.37ZM2767.55 527.249H2801.44C2801.29 522.611 2799.85 519.002 2797.12 516.421C2794.39 513.803 2790.48 512.494 2785.39 512.494C2780.45 512.494 2776.38 513.803 2773.16 516.421C2769.94 519.002 2768.07 522.611 2767.55 527.249ZM2825.1 560.687V505.705H2835.43V513.111C2837.78 509.894 2840.53 507.575 2843.67 506.154C2846.82 504.733 2850.03 504.022 2853.32 504.022C2858.3 504.022 2862.41 505.032 2865.67 507.052C2868.96 509.034 2871.41 511.577 2873.02 514.682C2874.66 517.786 2875.48 520.965 2875.48 524.219V560.687H2865.16V527.417C2865.16 523.265 2863.87 519.937 2861.29 517.431C2858.71 514.887 2855.19 513.616 2850.74 513.616C2847.83 513.616 2845.21 514.27 2842.89 515.579C2840.61 516.851 2838.79 518.665 2837.45 521.021C2836.1 523.378 2835.43 526.089 2835.43 529.156V560.687H2825.1ZM2914.34 562.37C2909.21 562.37 2905.08 560.874 2901.94 557.881C2898.84 554.889 2897.28 550.27 2897.28 544.024V489.547H2907.61V505.705H2923.71V514.457H2907.61V541.443C2907.61 545.632 2908.35 548.587 2909.85 550.307C2911.38 551.99 2913.61 552.832 2916.53 552.832C2917.84 552.832 2919.07 552.682 2920.23 552.383C2921.43 552.084 2922.47 551.691 2923.37 551.205L2925.5 559.677C2923.97 560.5 2922.23 561.154 2920.29 561.64C2918.34 562.127 2916.36 562.37 2914.34 562.37ZM2884.72 514.457V505.705H2898.85V514.457H2884.72ZM2963.37 562.37C2957.53 562.37 2952.39 561.154 2947.94 558.723C2943.49 556.292 2940.01 552.907 2937.5 548.568C2935 544.192 2933.74 539.105 2933.74 533.308C2933.74 529.119 2934.46 525.229 2935.88 521.638C2937.34 518.048 2939.35 514.943 2941.94 512.325C2944.55 509.707 2947.6 507.669 2951.08 506.21C2954.6 504.751 2958.41 504.022 2962.53 504.022C2966.98 504.022 2970.94 504.807 2974.42 506.378C2977.94 507.949 2980.83 510.156 2983.12 512.999C2985.43 515.804 2987.1 519.114 2988.11 522.929C2989.12 526.707 2989.32 530.821 2988.73 535.272H2943.96C2943.84 538.937 2944.59 542.154 2946.2 544.921C2947.81 547.652 2950.13 549.784 2953.16 551.317C2956.22 552.851 2959.85 553.617 2964.04 553.617C2967.11 553.617 2970.1 553.131 2973.02 552.159C2975.93 551.186 2978.52 549.746 2980.76 547.839L2985.14 555.525C2983.34 556.984 2981.21 558.237 2978.74 559.284C2976.31 560.294 2973.77 561.061 2971.11 561.584C2968.45 562.108 2965.87 562.37 2963.37 562.37ZM2944.52 527.249H2978.4C2978.25 522.611 2976.81 519.002 2974.08 516.421C2971.35 513.803 2967.44 512.494 2962.36 512.494C2957.42 512.494 2953.34 513.803 2950.13 516.421C2946.91 519.002 2945.04 522.611 2944.52 527.249ZM3002.07 560.687V505.705H3012.39V513.672C3014.6 510.081 3017.22 507.575 3020.25 506.154C3023.32 504.695 3026.57 503.966 3030.01 503.966C3031.09 503.966 3032.14 504.022 3033.15 504.134C3034.16 504.246 3035.15 504.396 3036.13 504.583L3034.61 515.299C3033.56 515 3032.5 514.775 3031.41 514.626C3030.33 514.439 3029.26 514.345 3028.22 514.345C3023.61 514.345 3019.82 515.785 3016.83 518.665C3013.87 521.508 3012.39 525.323 3012.39 530.11V560.687H3002.07Z" fill="black"/>
</svg>
