<?xml version="1.0" encoding="UTF-8"?>
<svg xmlns="http://www.w3.org/2000/svg" viewBox="0 0 2523 748" fill="none" preserveAspectRatio="xMidYMid meet">
  <path d="M1299 493.187C1344.6 493.187 1357 527.187 1357.5 544.187H1390C1390 517.687 1377.8 466.187 1299 466.187C1200.5 466.187 1196.5 548.687 1196.5 572.687C1196.5 596.687 1205.5 673.687 1299 673.687C1373.8 673.687 1392.17 621.353 1392 595.187H1358.5C1355.5 617.687 1342.2 646.687 1299 646.687C1245 646.687 1233.5 610.187 1233.5 572.687C1233.5 535.187 1242 493.187 1299 493.187Z" fill="#000"/>
  <path d="M814 465.687C871.5 466.655 886.591 503.696 885.091 526.22H850.591C847.091 496.72 827.09 492.696 797.59 492.696C765.09 492.696 757.591 509.72 757.591 519.72C757.591 531.22 765.59 546.196 811.09 549.196C856.59 552.196 877.09 571.196 882.59 583.696C888.09 596.196 888.591 607.72 886.591 624.22C884.329 642.883 872.582 655.22 862.082 661.72C843.582 673.172 797.5 676.696 767.052 669.696C715.516 657.848 715.09 621.72 716.092 602.72H751.092C749.892 637.12 777.333 644.53 792.5 644.696H819C835.5 644.696 850.591 636.196 850.591 613.696C850.591 583.196 806.787 580.619 787.59 578.22C771.588 576.22 749.091 572.72 735.091 558.72C723.891 547.52 722.59 536.178 722.59 528.696V521.696C722.59 512.896 722.59 498.687 735.091 486.691C746.09 476.136 763.5 464.837 814 465.687Z" fill="#000"/>
  <path d="M646.5 472.187H576V499.187H611.5V634.187C611.5 661.787 636 668.187 648 668.187H702.5V640.687H646.5V472.187Z" fill="#000"/>
  <path d="M70.5 406.687H0V434.187H35.5V636.187C35.5 661.787 58.8333 667.853 70.5 667.687H128V640.687H70.5V406.687Z" fill="#000"/>
  <path d="M1585.5 114.187H1425.5V142.187H1543L1425.5 286.187V315.187H1595V286.187H1468L1585.5 142.187V114.187Z" fill="#000"/>
  <path d="M1288.03 108.687C1355.03 108.52 1368.03 149.686 1368.03 170.187V286.687H1407.53V314.187H1367.03C1345.43 314.187 1339.37 298.854 1339.03 291.187V272.187H1332.53C1328.53 284.187 1320.5 319.187 1265.03 319.187C1216 319.187 1193.5 288.954 1193.5 250.687C1193.5 214.656 1225.53 199.687 1250.03 196.187C1280.5 191.835 1313.87 190.02 1333.53 188.687V179.687C1333.53 158.187 1327.13 135.187 1287.53 135.187C1247.93 135.187 1239.7 160.354 1239.53 172.687H1204.53V168.187C1204.53 142.687 1227.63 108.838 1288.03 108.687ZM1332.84 213.687C1240.35 215.187 1233.34 229.687 1228.84 244.187C1223.97 259.891 1230.84 292.687 1274.84 292.687C1318.84 292.687 1332.84 257.187 1332.84 229.687V213.687Z" fill="#000"/>
  <path d="M1511.03 464.687C1578.03 464.52 1591.03 505.686 1591.03 526.187V642.687H1630.53V670.187H1590.03C1568.43 670.187 1562.37 654.854 1562.03 647.187V628.187H1555.53C1551.53 640.187 1543.5 675.187 1488.03 675.187C1439 675.187 1416.5 644.954 1416.5 606.686C1416.5 570.655 1448.53 555.687 1473.03 552.187C1503.5 547.835 1536.87 546.02 1556.53 544.687V535.687C1556.53 514.187 1550.13 491.186 1510.53 491.186C1470.93 491.186 1462.7 516.354 1462.53 528.687H1427.53V524.187C1427.53 498.687 1450.63 464.838 1511.03 464.687ZM1555.84 569.687C1463.34 571.187 1456.34 585.687 1451.84 600.187C1446.97 615.891 1453.84 648.687 1497.84 648.687C1541.84 648.687 1555.84 613.187 1555.84 585.687V569.687Z" fill="#000"/>
  <path d="M1024.5 48.1865H956V75.1865H989.5V314.187H1024.5V213.687H1046.5C1061.5 235.353 1094 282.187 1104 296.187C1114 310.187 1130 314.187 1141.5 314.187H1175.5V286.687H1141.5L1080 200.187L1166 114.187H1121.5L1024.5 211.187V48.1865Z" fill="#000"/>
  <path d="M247.5 467.687C296.653 467.687 336.5 507.533 336.5 556.687V586.687C336.5 635.84 296.653 675.687 247.5 675.687H227.5C178.347 675.687 138.5 635.84 138.5 586.687V556.687C138.5 507.533 178.347 467.687 227.5 467.687H247.5ZM237 494.687C201.93 494.687 173.5 523.116 173.5 558.187V585.187C173.5 620.257 201.93 648.687 237 648.687C272.07 648.687 300.5 620.257 300.5 585.187V558.187C300.5 523.116 272.07 494.687 237 494.687Z" fill="#000"/>
  <path d="M967.5 426.187H984.5V471.687H1046.5V498.187H984.5V570.687V640.687H1044V668.187H989C955.5 668.187 949 646.687 949 627.687V498.187H909.5V471.687H948L967.5 426.187Z" fill="#000"/>
  <path d="M556.997 499.686H506.5V505.418C518.333 508.085 542.997 519.786 542.997 544.186V551.687C542.997 562.187 539.5 583.687 521.5 595.687C502.093 608.624 486.5 611.687 467.5 611.687H424.5C414 611.687 402 615.187 402 624.187V629.687C402 633.687 406.4 642.686 420 642.686H511.991C534.5 642.686 564 656.187 564 686.187V700.687C563.833 715.02 551.991 747.185 509.991 747.186H416.491C402.158 746.686 372.291 739.086 367.491 712.686C362.691 686.286 378 669.187 401.032 666.187L406.992 665.687V661.687C393.992 659.686 372.992 654.186 372.992 633.687V629.686C372.992 623.687 377.992 607.687 411.992 604.687V598.686C391.992 592.686 370.261 578.186 370.261 548.687V530.187C370.261 505.187 394.992 472.353 459.492 472.353C471.963 472.353 515.492 472.185 556.997 472.186V499.686ZM422.5 669.687C409.797 669.687 399.5 679.984 399.5 692.687V697.687C399.5 710.389 409.797 720.687 422.5 720.687H507.5C520.202 720.687 530.5 710.389 530.5 697.687V692.687C530.5 679.984 520.202 669.687 507.5 669.687H422.5ZM441.5 501.687C420.513 501.687 403.5 518.7 403.5 539.687V546.687C403.5 567.673 420.513 584.687 441.5 584.687H471.5C492.487 584.687 509.5 567.673 509.5 546.687V539.687C509.5 518.7 492.487 501.687 471.5 501.687H441.5Z" fill="#000"/>
  <rect x="606.5" y="404.687" width="45" height="39" fill="#000"/>
  <path d="M646.5 472.187H576V499.187H611.5V634.187C611.5 661.787 636 668.187 648 668.187H702.5V640.687H646.5V472.187Z" fill="#000"/>
  <path d="M1135 472.187H1064.5V499.187H1100V634.187C1100 661.787 1124.5 668.187 1136.5 668.187H1191V640.687H1135V472.187Z" fill="#000"/>
  <rect x="606.5" y="404.687" width="45" height="39" fill="#000"/>
  <rect x="1095" y="404.687" width="45" height="39" fill="#000"/>
</svg>
