<svg width="740" height="740" viewBox="0 0 740 740" fill="none" xmlns="http://www.w3.org/2000/svg">
<rect width="739.859" height="739.859" fill="#2A77DA"/>
<rect x="409.465" y="358.635" width="234.383" height="19.7672" fill="#FF8000"/>
<rect x="110.133" y="358.635" width="234.383" height="19.7672" fill="white"/>
<rect x="369.93" y="336.044" width="234.383" height="16.9433" transform="rotate(-90 369.93 336.044)" fill="white"/>
<rect x="369.93" y="635.378" width="234.383" height="16.9433" transform="rotate(-90 369.93 635.378)" fill="white"/>
<rect x="359.977" y="397.576" width="34.9497" height="17.0083" transform="rotate(135 359.977 397.576)" fill="white"/>
<rect x="292.242" y="465.306" width="139.493" height="17.0083" transform="rotate(135 292.242 465.306)" fill="white"/>
<rect x="394.055" y="339.449" width="37.4262" height="17.0083" transform="rotate(-45 394.055 339.449)" fill="white"/>
<rect x="464.355" y="269.146" width="135.857" height="17.0083" transform="rotate(-45 464.355 269.146)" fill="white"/>
<rect x="406.082" y="385.545" width="36.071" height="17.0083" transform="rotate(45 406.082 385.545)" fill="white"/>
<rect x="477.828" y="457.308" width="133.807" height="17.0083" transform="rotate(45 477.828 457.308)" fill="white"/>
<rect x="347.941" y="351.473" width="33.9318" height="17.0083" transform="rotate(-135 347.941 351.473)" fill="white"/>
<rect x="281.887" y="285.408" width="141.859" height="17.0083" transform="rotate(-135 281.887 285.408)" fill="white"/>
</svg>
